<svg xmlns="http://www.w3.org/2000/svg" version="1.1" xmlns:xlink="http://www.w3.org/1999/xlink" xmlns:svgjs="http://svgjs.dev/svgjs" width="1000" height="393" viewBox="0 0 1000 393"><g transform="matrix(1,0,0,1,-0.6060606060606233,0.5970070318970215)"><svg viewBox="0 0 396 156" data-background-color="#046380" preserveAspectRatio="xMidYMid meet" height="393" width="1000" xmlns="http://www.w3.org/2000/svg" xmlns:xlink="http://www.w3.org/1999/xlink"><g id="tight-bounds" transform="matrix(1,0,0,1,0.2400000000000091,-0.2369798905240117)"><svg viewBox="0 0 395.52 156.47395978104802" height="156.47395978104802" width="395.52"><g><svg viewBox="0 0 397.4975999999999 157.25632957995325" height="156.47395978104802" width="395.52"><g><rect width="397.4975999999999" height="2.8484179151588016" x="0" y="88.38930142971752" fill="#ffffff" opacity="1" stroke-width="0" stroke="transparent" fill-opacity="1" class="rect-o-0" data-fill-palette-color="secondary" rx="1%" id="o-0" data-palette-color="#ffffff"></rect></g><g transform="matrix(1,0,0,1,0.9887999999999693,98.6943107458156)"><svg viewBox="0 0 395.52 58.56201883413765" height="58.56201883413765" width="395.52"><g id="textblocktransform"><svg viewBox="0 0 395.52 58.56201883413765" height="58.56201883413765" width="395.52" id="textblock"><g><svg viewBox="0 0 395.52 31.585554655870446" height="31.585554655870446" width="395.52"><g transform="matrix(1,0,0,1,0,0)"><svg width="395.52" viewBox="5.099999904632568 -37.75 493.9700012207031 39.45000076293945" height="31.585554655870446" data-palette-color="#ffffff"><path d="M5.1 0L5.1-36.3 10.45-36.3 10.45-5.15 28.6-5.15 28.6 0 5.1 0ZM37.95 0L32.7 0 48.65-37.75 48.95-37.75 64.9 0 58.8 0 47.2-29.4 51.05-31.95 37.95 0ZM40.8-9L42.4-13.6 55.3-13.6 57.15-9 40.8-9ZM76.34 0L76.34-11.95 62.9-36.3 69.5-36.3 79.95-16.5 78.34-16.4 88.7-36.3 95.25-36.3 81.7-11.95 81.7 0 76.34 0ZM101.64 0L101.64-36.3 106.99-36.3 106.99-5.15 125.14-5.15 125.14 0 101.64 0ZM129.99-18.1L129.99-18.1Q129.99-21.85 131.41-25.2 132.84-28.55 135.39-31.15 137.94-33.75 141.29-35.23 144.64-36.7 148.49-36.7L148.49-36.7Q152.29-36.7 155.64-35.23 158.99-33.75 161.59-31.15 164.19-28.55 165.64-25.2 167.09-21.85 167.09-18.1L167.09-18.1Q167.09-14.25 165.64-10.9 164.19-7.55 161.62-5 159.04-2.45 155.66-1.03 152.29 0.4 148.49 0.4L148.49 0.4Q144.64 0.4 141.29-1 137.94-2.4 135.39-4.93 132.84-7.45 131.41-10.83 129.99-14.2 129.99-18.1ZM135.49-18.1L135.49-18.1Q135.49-15.3 136.51-12.88 137.54-10.45 139.34-8.63 141.14-6.8 143.51-5.78 145.89-4.75 148.64-4.75L148.64-4.75Q151.34-4.75 153.69-5.78 156.04-6.8 157.81-8.63 159.59-10.45 160.59-12.88 161.59-15.3 161.59-18.1L161.59-18.1Q161.59-20.9 160.56-23.33 159.54-25.75 157.76-27.6 155.99-29.45 153.62-30.5 151.24-31.55 148.54-31.55L148.54-31.55Q145.74-31.55 143.39-30.5 141.04-29.45 139.24-27.6 137.44-25.75 136.47-23.3 135.49-20.85 135.49-18.1ZM183.64 1.7L169.19-36.1 175.39-36.1 184.79-9.4 183.89-9.75 190.99-28 193.44-20.75 183.64 1.7ZM201.64 1.6L186.79-36.1 192.09-36.1 202.39-9.85 201.34-10.05 210.14-36.1 215.84-36.1 201.64 1.6ZM259.73-33.45L257.68-29.35Q255.78-30.35 253.58-31.05 251.38-31.75 249.33-31.75L249.33-31.75Q246.53-31.75 244.88-30.48 243.23-29.2 243.23-27L243.23-27Q243.23-25.45 244.33-24.3 245.43-23.15 247.18-22.3 248.93-21.45 250.88-20.7L250.88-20.7Q252.53-20.1 254.16-19.28 255.78-18.45 257.11-17.25 258.43-16.05 259.21-14.28 259.98-12.5 259.98-9.95L259.98-9.95Q259.98-7.05 258.56-4.7 257.13-2.35 254.46-0.98 251.78 0.4 247.98 0.4L247.98 0.4Q245.68 0.4 243.51-0.13 241.33-0.65 239.41-1.53 237.48-2.4 235.93-3.45L235.93-3.45 238.33-7.6Q239.53-6.75 241.08-5.98 242.63-5.2 244.31-4.75 245.98-4.3 247.48-4.3L247.48-4.3Q249.13-4.3 250.73-4.88 252.33-5.45 253.38-6.68 254.43-7.9 254.43-9.9L254.43-9.9Q254.43-11.6 253.51-12.78 252.58-13.95 251.06-14.8 249.53-15.65 247.78-16.3L247.78-16.3Q246.08-16.95 244.33-17.75 242.58-18.55 241.08-19.68 239.58-20.8 238.66-22.48 237.73-24.15 237.73-26.6L237.73-26.6Q237.73-29.5 239.11-31.68 240.48-33.85 242.93-35.1 245.38-36.35 248.58-36.5L248.58-36.5Q252.23-36.5 254.93-35.6 257.63-34.7 259.73-33.45L259.73-33.45ZM299.68 1.25L299.53 1.25 271.58-26.5 273.13-26 273.28 0 267.88 0 267.88-37.45 268.13-37.45 295.73-9.65 294.48-10 294.38-36.3 299.68-36.3 299.68 1.25ZM309.93 0L309.93-36.3 333.78-36.3 333.78-31.15 315.28-31.15 315.28-20.8 331.73-20.8 331.73-15.65 315.28-15.65 315.28-5.15 334.48-5.15 334.48 0 309.93 0ZM344.23 0L338.98 0 354.93-37.75 355.23-37.75 371.18 0 365.08 0 353.48-29.4 357.33-31.95 344.23 0ZM347.08-9L348.68-13.6 361.58-13.6 363.43-9 347.08-9ZM383.07-36.3L383.07-22 382.92-20.2 383.67-21.25 397.87-36.3 404.77-36.3 389.77-20.55 405.47 0 398.72 0 385.87-17.2 383.07-14.45 383.07 0 377.67 0 377.67-36.3 383.07-36.3ZM411.87 0L411.87-36.3 435.72-36.3 435.72-31.15 417.22-31.15 417.22-20.8 433.67-20.8 433.67-15.65 417.22-15.65 417.22-5.15 436.42-5.15 436.42 0 411.87 0ZM444.62-36.3L454.57-36.3Q457.42-36.3 459.84-35.52 462.27-34.75 463.99-33.3 465.72-31.85 466.69-29.73 467.67-27.6 467.67-24.8L467.67-24.8Q467.67-22.65 467.02-20.55 466.37-18.45 464.92-16.75 463.47-15.05 461.12-14.03 458.77-13 455.27-13L455.27-13 449.97-13 449.97 0 444.62 0 444.62-36.3ZM449.97-18.1L455.17-18.1Q457.22-18.1 458.59-18.75 459.97-19.4 460.74-20.38 461.52-21.35 461.84-22.48 462.17-23.6 462.17-24.65L462.17-24.65Q462.17-25.65 461.84-26.75 461.52-27.85 460.74-28.85 459.97-29.85 458.67-30.5 457.37-31.15 455.47-31.15L455.47-31.15 449.97-31.15 449.97-18.1ZM454.97-14.85L461.32-15 470.72 0 464.52 0 454.97-14.85ZM498.82-33.45L496.77-29.35Q494.87-30.35 492.67-31.05 490.47-31.75 488.42-31.75L488.42-31.75Q485.62-31.75 483.97-30.48 482.32-29.2 482.32-27L482.32-27Q482.32-25.45 483.42-24.3 484.52-23.15 486.27-22.3 488.02-21.45 489.97-20.7L489.97-20.7Q491.62-20.1 493.24-19.28 494.87-18.45 496.19-17.25 497.52-16.05 498.29-14.28 499.07-12.5 499.07-9.95L499.07-9.95Q499.07-7.05 497.64-4.7 496.22-2.35 493.54-0.98 490.87 0.4 487.07 0.4L487.07 0.4Q484.77 0.4 482.59-0.13 480.42-0.65 478.49-1.53 476.57-2.4 475.02-3.45L475.02-3.45 477.42-7.6Q478.62-6.75 480.17-5.98 481.72-5.2 483.39-4.75 485.07-4.3 486.57-4.3L486.57-4.3Q488.22-4.3 489.82-4.88 491.42-5.45 492.47-6.68 493.52-7.9 493.52-9.9L493.52-9.9Q493.52-11.6 492.59-12.78 491.67-13.95 490.14-14.8 488.62-15.65 486.87-16.3L486.87-16.3Q485.17-16.95 483.42-17.75 481.67-18.55 480.17-19.68 478.67-20.8 477.74-22.48 476.82-24.15 476.82-26.6L476.82-26.6Q476.82-29.5 478.19-31.68 479.57-33.85 482.02-35.1 484.47-36.35 487.67-36.5L487.67-36.5Q491.32-36.5 494.02-35.6 496.72-34.7 498.82-33.45L498.82-33.45Z" opacity="1" transform="matrix(1,0,0,1,0,0)" fill="#ffffff" class="undefined-text-0" data-fill-palette-color="primary" id="text-0"></path></svg></g></svg></g><g transform="matrix(1,0,0,1,119.37743150247131,39.04214605680972)"><svg viewBox="0 0 156.76513699505736 19.519872777327937" height="19.519872777327937" width="156.76513699505736"><g transform="matrix(1,0,0,1,0,0)"><svg width="156.76513699505736" viewBox="-0.7599999904632568 -38.9900016784668 407.8500061035156 50.787681579589844" height="19.519872777327937" data-palette-color="#ffffff"><path d="M25-25.15L25.29-24.66 14.89 2.29Q14.23 4.03 13.76 5.15 13.28 6.27 12.65 7.48 12.01 8.69 11.41 9.45 10.82 10.21 10.02 10.83 9.23 11.45 8.3 11.79L8.3 11.79Q4.42 11.94 1.49 9.16L1.49 9.16Q2.81 7.54 5.15 6.4L5.15 6.4 5.44 6.69Q6.42 8.96 8.59 9.96L8.59 9.96Q9.64 9.11 10.75 7.14 11.87 5.18 13.5 0.76L13.5 0.76 4.81-19.8Q4.13-21.53 3.28-22.29 2.44-23.05 1.55-23.02 0.66-23-0.49-22.85L-0.49-22.85-0.76-23.34Q3.34-25.39 6.45-25.39L6.45-25.39 13.79-7.5Q14.28-6.32 14.94-3L14.94-3 15.36-3Q16.53-6.88 16.55-6.96L16.55-6.96 22-22.56Q22.31-23.44 21.26-23.82 20.21-24.19 18.09-24L18.09-24 17.94-24.61Q20.02-25.02 25-25.15L25-25.15ZM39.99-25.39L39.99-25.39Q45.6-25.39 48.8-21.95 52-18.51 52-12.35L52-12.35Q52-8.79 50.36-5.71 48.73-2.64 45.92-0.82 43.11 1 39.84 1L39.84 1Q34.2 1 31.02-2.4 27.83-5.81 27.83-12.06L27.83-12.06Q27.83-15.77 29.47-18.84 31.1-21.9 33.9-23.65 36.69-25.39 39.99-25.39ZM39.5-23.71L39.5-23.71Q37.57-23.71 36.15-23.14 34.74-22.58 33.88-21.63 33.03-20.68 32.52-19.21 32-17.75 31.82-16.21 31.64-14.67 31.64-12.65L31.64-12.65Q31.64-9.42 32.41-7.02 33.18-4.61 34.47-3.28 35.76-1.95 37.23-1.33 38.69-0.71 40.33-0.71L40.33-0.71Q42.23-0.71 43.66-1.31 45.09-1.9 45.94-2.87 46.8-3.83 47.31-5.31 47.82-6.79 48.01-8.3 48.19-9.81 48.19-11.74L48.19-11.74Q48.19-14.45 47.68-16.58 47.17-18.7 46.32-20.02 45.48-21.34 44.32-22.19 43.16-23.05 41.99-23.38 40.82-23.71 39.5-23.71ZM79.83-22.19L79.83-6.81Q79.83-5.18 79.99-4.09 80.15-3 80.55-2.34 80.95-1.68 81.66-1.4 82.37-1.12 83.15-1.12 83.93-1.12 84.13-1.15L84.13-1.15 84.25-0.71Q80.22 0.49 76.83 0.49L76.83 0.49Q76.34-0.83 76.34-2.29L76.34-2.29 76.34-3.44Q75.04-2.29 73.93-1.46 72.82-0.63 71.75-0.09 70.67 0.46 69.55 0.73 68.43 1 67.13 1L67.13 1Q65.67 1 64.22 0.66 62.76 0.32 61.59-0.56 60.42-1.44 59.7-2.95 58.98-4.47 58.98-6.81L58.98-6.81 58.98-21.9Q58.98-22.88 58.16-23.39 57.34-23.9 55.73-24.34L55.73-24.34 55.93-24.95Q57.34-24.66 59.59-24.66L59.59-24.66Q60.98-24.66 62.84-25.05L62.84-25.05 62.98-24.8Q62.5-24.05 62.5-22.19L62.5-22.19 62.5-7.69Q62.5-5.66 62.96-4.36 63.42-3.05 64.2-2.29 64.99-1.54 66.04-1.26 67.08-0.98 68.26-0.98L68.26-0.98Q69.36-0.98 70.3-1.21 71.24-1.44 72.19-1.94 73.14-2.44 74.14-3.23 75.14-4.03 76.34-5.15L76.34-5.15 76.34-21.29Q76.34-22.05 76.2-22.52 76.07-23 75.69-23.33 75.31-23.66 74.6-23.9 73.9-24.15 72.75-24.44L72.75-24.44 72.94-25.05Q74.34-24.85 75.34-24.76 76.34-24.66 76.95-24.66L76.95-24.66Q78.34-24.66 80.2-25.05L80.2-25.05 80.34-24.8Q79.83-24.07 79.83-22.19L79.83-22.19ZM92.13-2.44L92.13-18.09Q92.13-19.73 91.97-20.83 91.81-21.92 91.41-22.58 91.01-23.24 90.3-23.51 89.59-23.78 87.83-23.75L87.83-23.75 87.74-24.19Q91.72-25.39 95.13-25.39L95.13-25.39Q95.65-24.1 95.65-22.61L95.65-22.61 95.65-19.6 95.74-19.51Q96.77-20.92 97.71-22.02 98.65-23.12 99.63-23.85 100.6-24.58 101.68-24.96 102.75-25.34 104.07-25.34L104.07-25.34Q104.9-25.34 105.9-25.2L105.9-25.2 104.48-19.24 103.58-19.51Q103.58-19.87 103.53-20.51 103.48-21.14 103.4-21.77 103.31-22.39 103.18-22.84 103.04-23.29 102.87-23.29L102.87-23.29Q102.17-23.29 101.45-22.99 100.72-22.68 99.87-22 99.02-21.31 97.99-20.21 96.97-19.12 95.65-17.55L95.65-17.55 95.65-3.34Q95.65-2.56 95.77-2.09 95.89-1.61 96.28-1.29 96.67-0.98 97.38-0.73 98.09-0.49 99.24-0.2L99.24-0.2 99.04 0.39Q97.62 0.2 96.64 0.1 95.65 0 95.04 0L95.04 0Q93.64 0 91.79 0.39L91.79 0.39 91.64 0.15Q92.13-0.56 92.13-2.44L92.13-2.44ZM129.28-22.61L129.28-6.74Q129.28-3.42 130.02-2.16 130.75-0.9 132.38-0.9L132.38-0.9Q134.17-0.9 136.73-2.25L136.73-2.25 137.49-1.2Q133.46 1 130.9 1L130.9 1Q129.53 1 128.67 0.76 127.82 0.51 127.11-0.2 126.4-0.9 126.1-2.28 125.79-3.66 125.79-5.86L125.79-5.86 125.79-22.41 122.13-22.19 122.13-23.75Q124.06-24.17 125.79-24.29L125.79-24.29 125.79-27.76Q127.87-28.93 129.19-31.1L129.19-31.1 129.94-30.81Q129.53-29.83 129.41-28.6 129.28-27.37 129.28-24.44L129.28-24.44 137.68-24.44 137.68-23.58Q136.66-23.17 135.61-22.89 134.56-22.61 133.43-22.61L133.43-22.61 129.28-22.61ZM144.57-2.44L144.57-18.09Q144.57-19.73 144.41-20.83 144.25-21.92 143.84-22.58 143.44-23.24 142.73-23.51 142.03-23.78 140.27-23.75L140.27-23.75 140.17-24.19Q144.15-25.39 147.57-25.39L147.57-25.39Q148.08-24.1 148.08-22.61L148.08-22.61 148.08-19.6 148.18-19.51Q149.2-20.92 150.14-22.02 151.08-23.12 152.06-23.85 153.04-24.58 154.11-24.96 155.19-25.34 156.5-25.34L156.5-25.34Q157.33-25.34 158.33-25.2L158.33-25.2 156.92-19.24 156.02-19.51Q156.02-19.87 155.97-20.51 155.92-21.14 155.83-21.77 155.75-22.39 155.61-22.84 155.48-23.29 155.31-23.29L155.31-23.29Q154.6-23.29 153.88-22.99 153.16-22.68 152.3-22 151.45-21.31 150.42-20.21 149.4-19.12 148.08-17.55L148.08-17.55 148.08-3.34Q148.08-2.56 148.2-2.09 148.32-1.61 148.72-1.29 149.11-0.98 149.81-0.73 150.52-0.49 151.67-0.2L151.67-0.2 151.47 0.39Q150.06 0.2 149.07 0.1 148.08 0 147.47 0L147.47 0Q146.08 0 144.22 0.39L144.22 0.39 144.08 0.15Q144.57-0.56 144.57-2.44L144.57-2.44ZM184.67-22.19L184.67-6.81Q184.67-5.18 184.83-4.09 184.99-3 185.4-2.34 185.8-1.68 186.51-1.4 187.21-1.12 188-1.12 188.78-1.12 188.97-1.15L188.97-1.15 189.09-0.71Q185.07 0.49 181.67 0.49L181.67 0.49Q181.18-0.83 181.18-2.29L181.18-2.29 181.18-3.44Q179.89-2.29 178.78-1.46 177.67-0.63 176.59-0.09 175.52 0.46 174.4 0.73 173.27 1 171.98 1L171.98 1Q170.51 1 169.06 0.66 167.61 0.32 166.44-0.56 165.27-1.44 164.55-2.95 163.83-4.47 163.83-6.81L163.83-6.81 163.83-21.9Q163.83-22.88 163.01-23.39 162.19-23.9 160.58-24.34L160.58-24.34 160.77-24.95Q162.19-24.66 164.44-24.66L164.44-24.66Q165.83-24.66 167.68-25.05L167.68-25.05 167.83-24.8Q167.34-24.05 167.34-22.19L167.34-22.19 167.34-7.69Q167.34-5.66 167.8-4.36 168.27-3.05 169.05-2.29 169.83-1.54 170.88-1.26 171.93-0.98 173.1-0.98L173.1-0.98Q174.2-0.98 175.14-1.21 176.08-1.44 177.03-1.94 177.99-2.44 178.99-3.23 179.99-4.03 181.18-5.15L181.18-5.15 181.18-21.29Q181.18-22.05 181.05-22.52 180.92-23 180.54-23.33 180.16-23.66 179.45-23.9 178.74-24.15 177.59-24.44L177.59-24.44 177.79-25.05Q179.18-24.85 180.18-24.76 181.18-24.66 181.79-24.66L181.79-24.66Q183.19-24.66 185.04-25.05L185.04-25.05 185.19-24.8Q184.67-24.07 184.67-22.19L184.67-22.19ZM210.65-5.69L210.65-5.69Q210.65-3.93 209.94-2.66 209.23-1.39 208.05-0.57 206.86 0.24 205.29 0.62 203.72 1 201.98 1L201.98 1Q197.78 1 194.1-0.76L194.1-0.76Q194.56-2.37 195.02-3.75 195.49-5.13 195.98-6.3L195.98-6.3 196.68-6.05Q196.46-4.98 196.46-3.99 196.46-3 196.54-2.2L196.54-2.2Q197.29-1.81 197.95-1.53 198.61-1.25 199.27-1.06 199.93-0.88 200.69-0.79 201.44-0.71 202.45-0.71L202.45-0.71Q203.94-0.71 204.91-0.9 205.89-1.1 206.44-1.57 206.99-2.05 207.21-2.84 207.43-3.64 207.43-4.81L207.43-4.81Q207.43-5.71 207.12-6.51 206.82-7.3 206.07-8.08 205.33-8.86 204.09-9.7 202.86-10.55 201.03-11.55L201.03-11.55Q198.08-13.31 196.56-15.05 195.05-16.8 195.05-18.8L195.05-18.8Q195.05-20.39 195.71-21.62 196.37-22.85 197.5-23.69 198.64-24.54 200.15-24.96 201.66-25.39 203.35-25.39L203.35-25.39Q204.2-25.39 205.14-25.27 206.08-25.15 206.96-24.91 207.84-24.68 208.61-24.35 209.38-24.02 209.94-23.61L209.94-23.61Q209.16-20.41 208.04-17.99L208.04-17.99 207.33-18.26Q207.38-18.97 207.4-20.01 207.43-21.04 207.43-22.46L207.43-22.46Q205.84-23.71 203.03-23.71L203.03-23.71Q201.64-23.71 200.68-23.54 199.71-23.36 199.13-22.95 198.54-22.53 198.28-21.81 198.03-21.09 198.03-20L198.03-20Q198.03-19.19 198.25-18.49 198.47-17.8 199.03-17.13 199.59-16.46 200.55-15.76 201.52-15.06 203.03-14.26L203.03-14.26Q205.4-12.96 206.88-11.99 208.35-11.01 209.2-10.07 210.04-9.13 210.34-8.11 210.65-7.08 210.65-5.69ZM222.78-22.61L222.78-6.74Q222.78-3.42 223.51-2.16 224.25-0.9 225.88-0.9L225.88-0.9Q227.66-0.9 230.23-2.25L230.23-2.25 230.98-1.2Q226.96 1 224.39 1L224.39 1Q223.02 1 222.17 0.76 221.32 0.51 220.61-0.2 219.9-0.9 219.59-2.28 219.29-3.66 219.29-5.86L219.29-5.86 219.29-22.41 215.63-22.19 215.63-23.75Q217.56-24.17 219.29-24.29L219.29-24.29 219.29-27.76Q221.36-28.93 222.68-31.1L222.68-31.1 223.44-30.81Q223.02-29.83 222.9-28.6 222.78-27.37 222.78-24.44L222.78-24.44 231.18-24.44 231.18-23.58Q230.15-23.17 229.1-22.89 228.05-22.61 226.93-22.61L226.93-22.61 222.78-22.61ZM234.91-11.89L234.91-11.89Q234.91-14.48 235.77-16.91 236.62-19.34 238.21-21.23 239.79-23.12 242.05-24.26 244.31-25.39 247.12-25.39L247.12-25.39Q248.88-25.39 250.44-24.79 252-24.19 253.16-22.94 254.32-21.68 254.99-19.71 255.66-17.75 255.66-15.04L255.66-15.04 254.71-14.16 238.77-14.16Q238.72-13.75 238.72-13.35 238.72-12.96 238.72-12.57L238.72-12.57Q238.72-9.91 239.34-7.74 239.97-5.57 241.03-4.02 242.09-2.47 243.53-1.61 244.97-0.76 246.58-0.76L246.58-0.76Q247.61-0.76 248.67-0.92 249.73-1.07 250.74-1.42 251.76-1.76 252.71-2.29 253.66-2.83 254.47-3.59L254.47-3.59 255.47-2.54Q253.54-0.63 251.27 0.18 249 1 246.02 1L246.02 1Q243.68 1 241.64 0.1 239.6-0.81 238.11-2.49 236.62-4.17 235.77-6.56 234.91-8.94 234.91-11.89ZM246.58-23.71L246.58-23.71Q242.8-23.71 241.04-21.74 239.28-19.78 238.92-16.09L238.92-16.09 252.51-16.09Q252.32-20.09 250.72-21.9 249.12-23.71 246.58-23.71ZM278.83-25L278.83-31.69Q278.83-33.35 278.68-34.33 278.54-35.3 278.09-36.04 277.63-36.77 276.78-37.06 275.92-37.35 274.53-37.35L274.53-37.35 274.44-37.79Q278.46-38.99 281.83-38.99L281.83-38.99Q282.32-37.7 282.32-36.21L282.32-36.21 282.32-4.39Q282.32-2.47 283.22-1.54 284.13-0.61 286.42-0.2L286.42-0.2 286.23 0.39Q283.42 0 281.74 0L281.74 0Q280.42 0 278.46 0.39L278.46 0.39 278.32 0.15Q278.83-0.56 278.83-2.44L278.83-2.44 278.83-2.66Q275.24 1 271.33 1L271.33 1Q269.26 1 267.34 0.12 265.43-0.76 263.94-2.31 262.45-3.86 261.56-6.19 260.67-8.52 260.67-11.25L260.67-11.25Q260.67-17.8 264.12-21.59 267.58-25.39 274.12-25.39L274.12-25.39Q276.17-25.39 278.83-25L278.83-25ZM278.83-4.44L278.83-22.29Q276.05-23.56 272.34-23.56L272.34-23.56Q270.43-23.56 269.04-23.03 267.65-22.51 266.78-21.61 265.91-20.7 265.4-19.27 264.89-17.85 264.71-16.26 264.52-14.67 264.52-12.55L264.52-12.55Q264.52-6.96 266.6-4.03 268.67-1.1 271.97-1.1L271.97-1.1Q275.56-1.1 278.83-4.44L278.83-4.44ZM319.96-5.69L319.96-5.69Q319.96-3.93 319.25-2.66 318.55-1.39 317.36-0.57 316.18 0.24 314.6 0.62 313.03 1 311.3 1L311.3 1Q307.1 1 303.41-0.76L303.41-0.76Q303.87-2.37 304.34-3.75 304.8-5.13 305.29-6.3L305.29-6.3 306-6.05Q305.78-4.98 305.78-3.99 305.78-3 305.85-2.2L305.85-2.2Q306.61-1.81 307.27-1.53 307.93-1.25 308.59-1.06 309.24-0.88 310-0.79 310.76-0.71 311.76-0.71L311.76-0.71Q313.25-0.71 314.23-0.9 315.2-1.1 315.75-1.57 316.3-2.05 316.52-2.84 316.74-3.64 316.74-4.81L316.74-4.81Q316.74-5.71 316.43-6.51 316.13-7.3 315.38-8.08 314.64-8.86 313.41-9.7 312.17-10.55 310.34-11.55L310.34-11.55Q307.39-13.31 305.88-15.05 304.36-16.8 304.36-18.8L304.36-18.8Q304.36-20.39 305.02-21.62 305.68-22.85 306.82-23.69 307.95-24.54 309.46-24.96 310.98-25.39 312.66-25.39L312.66-25.39Q313.52-25.39 314.46-25.27 315.4-25.15 316.28-24.91 317.16-24.68 317.92-24.35 318.69-24.02 319.25-23.61L319.25-23.61Q318.47-20.41 317.35-17.99L317.35-17.99 316.64-18.26Q316.69-18.97 316.72-20.01 316.74-21.04 316.74-22.46L316.74-22.46Q315.15-23.71 312.35-23.71L312.35-23.71Q310.95-23.71 309.99-23.54 309.03-23.36 308.44-22.95 307.85-22.53 307.6-21.81 307.34-21.09 307.34-20L307.34-20Q307.34-19.19 307.56-18.49 307.78-17.8 308.34-17.13 308.9-16.46 309.87-15.76 310.83-15.06 312.35-14.26L312.35-14.26Q314.71-12.96 316.19-11.99 317.67-11.01 318.51-10.07 319.35-9.13 319.66-8.11 319.96-7.08 319.96-5.69ZM345.69-2.44L345.69-17.04Q345.69-19.09 345.3-20.4 344.91-21.7 344.24-22.45 343.57-23.19 342.68-23.49 341.79-23.78 340.79-23.78L340.79-23.78Q339.56-23.78 338.5-23.56 337.44-23.34 336.38-22.89 335.32-22.44 334.22-21.77 333.12-21.09 331.85-20.19L331.85-20.19 331.85-3.34Q331.85-2.56 331.97-2.09 332.09-1.61 332.48-1.29 332.88-0.98 333.58-0.73 334.29-0.49 335.44-0.2L335.44-0.2 335.24 0.39Q333.83 0.2 332.84 0.1 331.85 0 330.85 0 329.85 0 327.99 0.39L327.99 0.39 327.85 0.15Q328.33-0.56 328.33-2.44L328.33-2.44 328.33-31.69Q328.33-33.33 328.18-34.42 328.02-35.52 327.61-36.18 327.21-36.84 326.5-37.11 325.8-37.38 325-37.38 324.21-37.38 324.04-37.35L324.04-37.35 323.94-37.79Q327.92-38.99 331.34-38.99L331.34-38.99Q331.85-37.7 331.85-36.21L331.85-36.21 331.85-21.9Q333.53-23.05 334.91-23.79 336.29-24.54 337.5-24.98 338.71-25.42 339.8-25.59 340.88-25.76 342.01-25.76L342.01-25.76Q343.54-25.76 344.83-25.35 346.11-24.95 347.04-24.04 347.96-23.12 348.52-21.63 349.09-20.14 349.18-17.94L349.18-17.94 349.18-2.76Q349.18-2.17 349.46-1.78 349.75-1.39 350.2-1.12 350.65-0.85 351.23-0.67 351.82-0.49 352.46-0.29L352.46-0.29 352.24 0.29Q350.87 0 349.04 0 347.21 0 345.35 0.39L345.35 0.39 345.2 0.15Q345.69-0.56 345.69-2.44L345.69-2.44ZM369.35-25.39L369.35-25.39Q374.96-25.39 378.16-21.95 381.36-18.51 381.36-12.35L381.36-12.35Q381.36-8.79 379.72-5.71 378.09-2.64 375.28-0.82 372.47 1 369.2 1L369.2 1Q363.56 1 360.38-2.4 357.19-5.81 357.19-12.06L357.19-12.06Q357.19-15.77 358.82-18.84 360.46-21.9 363.26-23.65 366.05-25.39 369.35-25.39ZM368.86-23.71L368.86-23.71Q366.93-23.71 365.51-23.14 364.1-22.58 363.24-21.63 362.39-20.68 361.88-19.21 361.36-17.75 361.18-16.21 361-14.67 361-12.65L361-12.65Q361-9.42 361.77-7.02 362.54-4.61 363.83-3.28 365.12-1.95 366.59-1.33 368.05-0.71 369.69-0.71L369.69-0.71Q371.59-0.71 373.02-1.31 374.45-1.9 375.3-2.87 376.16-3.83 376.67-5.31 377.18-6.79 377.37-8.3 377.55-9.81 377.55-11.74L377.55-11.74Q377.55-14.45 377.04-16.58 376.53-18.7 375.68-20.02 374.84-21.34 373.68-22.19 372.52-23.05 371.35-23.38 370.18-23.71 368.86-23.71ZM386.34-11.89L386.34-11.89Q386.34-14.48 387.19-16.91 388.05-19.34 389.63-21.23 391.22-23.12 393.48-24.26 395.74-25.39 398.54-25.39L398.54-25.39Q400.3-25.39 401.86-24.79 403.43-24.19 404.59-22.94 405.75-21.68 406.42-19.71 407.09-17.75 407.09-15.04L407.09-15.04 406.14-14.16 390.19-14.16Q390.15-13.75 390.15-13.35 390.15-12.96 390.15-12.57L390.15-12.57Q390.15-9.91 390.77-7.74 391.39-5.57 392.45-4.02 393.51-2.47 394.96-1.61 396.4-0.76 398.01-0.76L398.01-0.76Q399.03-0.76 400.09-0.92 401.16-1.07 402.17-1.42 403.18-1.76 404.13-2.29 405.09-2.83 405.89-3.59L405.89-3.59 406.89-2.54Q404.96-0.63 402.69 0.18 400.42 1 397.45 1L397.45 1Q395.1 1 393.06 0.1 391.02-0.81 389.54-2.49 388.05-4.17 387.19-6.56 386.34-8.94 386.34-11.89ZM398.01-23.71L398.01-23.71Q394.22-23.71 392.46-21.74 390.71-19.78 390.34-16.09L390.34-16.09 403.94-16.09Q403.74-20.09 402.15-21.9 400.55-23.71 398.01-23.71Z" opacity="1" transform="matrix(1,0,0,1,0,0)" fill="#ffffff" class="undefined-text-1" data-fill-palette-color="secondary" id="text-1"></path></svg></g></svg></g></svg></g></svg></g><g transform="matrix(1,0,0,1,110.02363097916323,0)"><svg viewBox="0 0 177.45033804167346 80.93271002877825" height="80.93271002877825" width="177.45033804167346"><g><svg xmlns="http://www.w3.org/2000/svg" xmlns:xlink="http://www.w3.org/1999/xlink" version="1.1" x="8" y="0" viewBox="11.479578018188477 80.17040252685547 265.29718017578125 132.9896240234375" enable-background="new 0 0 283.46 283.46" xml:space="preserve" height="80.93271002877825" width="161.45033804167346" class="icon-icon-0" data-fill-palette-color="accent" id="icon-0"><path d="M276.621 179.3c-0.646-6.781-2.256-10.139-3.539-11.776-0.319-1.442-1.263-3.508-3.78-5.903-4.659-4.43-13.259-8.726-25.558-12.763-8.139-2.673-19.254-7.576-30.93-13.186l0.055-0.107c0.789-1.581 0.148-3.5-1.43-4.291-1.58-0.789-3.5-0.15-4.289 1.43l-0.086 0.171c-2.475-1.217-4.957-2.455-7.424-3.698 0.75-1.496 0.221-3.336-1.244-4.191-1.525-0.888-3.484-0.374-4.373 1.151l-0.084 0.142c-2.627-1.347-5.217-2.687-7.744-4.006l0.102-0.167c0.904-1.518 0.406-3.48-1.114-4.382-1.517-0.902-3.479-0.404-4.381 1.113l-0.271 0.458c-2.579-1.363-5.052-2.681-7.396-3.938l0.381-0.611c0.934-1.498 0.477-3.47-1.021-4.404-1.498-0.936-3.468-0.479-4.404 1.02l-0.516 0.825c-2.576-1.472-4.953-2.907-7.16-4.301l0.101-0.158c0.935-1.498 0.478-3.47-1.021-4.404-1.498-0.935-3.47-0.478-4.406 1.021l-0.018 0.029c-4.258-2.914-7.797-5.616-10.887-8.057-2.522-1.994-4.777-3.822-6.767-5.435-8.367-6.78-12.977-10.515-17.944-10.704-5.545-0.211-9.85 3.99-16.277 10.934-4.807 5.194-7.789 13.978 3.89 26.903-9.096 5.787-20.515 10.648-34.846 10.648-11.539 0-20.046-2.308-25.283-6.862-3.875-3.369-5.095-7.27-5.434-9.95-1.307-10.31-5.933-16.972-11.785-16.972-2.613 0-7.417 1.449-10.23 11.155l-0.469 1.611c-2.759 9.449-6.926 23.73-7.542 42.012-0.291 8.613 3.14 19.465 4.749 24.039-0.861 1.151-1.439 2.803-1.145 5.057 0.12 0.926 0.433 1.806 0.735 2.66 0.343 0.965 0.812 2.291 0.53 2.735-1.654 2.599-6.687 10.506-3.444 16.783 2.343 4.532 8.315 6.823 21.298 8.165 13.664 1.412 32.485 2.128 55.941 2.128 0.005 0 0.008 0 0.012 0 4.475 0 9.127-0.024 14.219-0.077 2.265-0.021 4.342-0.05 6.314-0.076 3.854-0.052 7.182-0.095 10.781-0.095 9.036 0 19.964 0.282 43.924 1.66 6.075 0.348 11.952 0.524 17.467 0.524 27.238 0 45.18-4.15 65.801-9.578C273.779 196.976 277.689 190.489 276.621 179.3zM261.837 163.839c3.062 2.056 4.266 3.606 4.73 4.423-11.211 3.338-24.158 5.647-38.531 6.874-7.144 0.611-13.104 1.068-18.363 1.472-27.578 2.114-31.122 2.386-39.518 13.181-0.24 0.306-0.48 0.621-0.725 0.941-0.822-0.186-1.652-0.374-2.496-0.568 1.47-1.293 2.869-2.568 4.148-3.906 7.93-8.297 9.113-8.616 42.223-11.346 3.834-0.314 8.086-0.666 12.82-1.07 4.951-0.42 21.773-2.012 30.432-4.771 3.48-1.109 5.26-2.798 5.287-5.02C261.845 163.979 261.841 163.91 261.837 163.839zM137.857 105.331c5.76 0 10.803 3.858 10.846 3.891 0.127 0.102 0.262 0.191 0.403 0.271 0.235 0.131 0.944 0.53 2.056 1.151l-0.761 1.216c-0.934 1.498-0.477 3.47 1.021 4.404 0.525 0.329 1.111 0.486 1.689 0.486 1.067 0 2.108-0.534 2.715-1.506l0.933-1.495c2.106 1.159 4.577 2.514 7.34 4.014l-0.697 1.115c-0.934 1.497-0.478 3.47 1.021 4.404 0.525 0.329 1.111 0.486 1.689 0.486 1.067 0 2.11-0.534 2.715-1.506l0.908-1.455c2.377 1.278 4.891 2.62 7.514 4.008l-0.686 1.156c-0.904 1.517-0.404 3.48 1.113 4.382 0.512 0.305 1.074 0.45 1.631 0.45 1.09 0 2.154-0.559 2.75-1.564l0.859-1.444c2.537 1.326 5.143 2.676 7.789 4.033l-0.312 0.533c-0.89 1.524-0.373 3.482 1.149 4.372 0.508 0.296 1.062 0.437 1.609 0.437 1.1 0 2.17-0.568 2.764-1.588l0.496-0.849c2.584 1.304 5.188 2.602 7.787 3.879-0.768 1.573-0.129 3.476 1.441 4.261 0.459 0.23 0.947 0.338 1.428 0.338 1.172 0 2.303-0.647 2.861-1.768l0.02-0.038c3.789 1.82 7.53 3.569 11.139 5.2-5.174-0.215-11.877-1.445-20.469-4.539-20.543-7.401-60.027-26.04-72.648-32.063 0.887-0.743 1.737-1.445 2.521-2.066C132.705 106.184 135.113 105.333 137.857 105.331zM100.087 178.468c-0.362-0.035-0.713-0.072-1.079-0.107l-10.023-1.083-2.964-4.149-13.113-19.291c4.68-1.236 12.861-3.873 25.346-9.409 12.51-5.547 24.854-13.638 36.703-24.042 12.266 6.02 22.719 10.93 31.665 14.939l-8.944 17.887-29.758-12.3-11.524 4.365L100.087 178.468zM107.887 95.454c5.526-5.971 8.807-8.994 11.342-8.888 2.839 0.108 7.101 3.561 14.161 9.282 1.185 0.961 2.466 2 3.842 3.103-3.936 0.127-7.535 1.461-10.709 3.974-1.364 1.079-2.85 2.333-4.424 3.661-2.821 2.379-6.037 5.088-9.69 7.775C101.331 102.539 106.228 97.246 107.887 95.454zM17.886 149.871c0.146-4.32 0.502-8.415 0.996-12.271 0.91-0.159 1.995-0.516 3.322-1.263 2.166-1.219 9.378-2.771 15.133-0.64 5.754 2.131 14.216 7.149 22.206 4.676 2.009-0.62 5.843-3.153 7.599-5.469 1.617 0.099 3.312 0.153 5.096 0.153 23.221 0 39.646-11.745 50.344-20.542 1.264 0.606 3.348 1.603 6.052 2.886-10.712 9.102-21.788 16.224-32.972 21.183-19.987 8.863-28.346 9.954-28.412 9.961-1.114 0.123-2.082 0.821-2.551 1.84-0.469 1.02-0.37 2.207 0.26 3.136l15.893 23.38c-8.318-0.554-17.417-1.012-27.423-1.346-11.761-0.391-22.021-1.191-30.569-2.378C22.024 170.948 17.589 158.678 17.886 149.871zM161.708 201.572c-8.047-0.083-40.902-0.445-96.048-1.296-17.839-0.276-31.242-1.53-39.839-3.728-1.853-0.476-3.283-0.946-4.387-1.381-0.159-0.076-0.335-0.156-0.529-0.237-2.675-1.109-0.688-4.7-0.688-4.7l-0.009-0.002c0.428-0.807 0.939-1.688 1.551-2.648 1.883-2.959 0.88-6.1 0.184-8.076 8.781 1.221 19.277 2.041 31.272 2.44 59.739 1.993 86.897 8.435 106.728 13.142 1.854 0.44 3.635 0.863 5.369 1.265C164.158 197.98 162.955 199.724 161.708 201.572zM162.572 188.876c-0.08 0.066-0.16 0.138-0.236 0.205-0.307-0.072-0.606-0.146-0.918-0.218-0.948-0.226-1.916-0.454-2.901-0.688l-14.962-3.327c-4.217-0.86-8.813-1.723-13.896-2.562l-10.319-1.492 9.516-20.018 29.688 12.271 11.487-4.292 13.153-26.309c27.893 11.39 34.863 10.608 39.548 10.608 2.826 0 5.458-0.278 7.896-0.828 4.674 1.854 11.677 4.517 20.886 7.704 4.586 1.588 6.479 3.531 6.5 4.055-0.002 0.006-0.314 0.693-2.619 1.428-6.578 2.094-19.599 3.752-29.592 4.605-4.729 0.402-8.979 0.752-12.81 1.068-32.834 2.707-35.516 2.928-44.682 12.518C166.628 185.363 164.658 187.07 162.572 188.876zM247.05 197.397c-20.17 5.308-37.701 9.368-64.174 9.368-5.248 0-10.842-0.166-16.627-0.49 2.086-3.117 4.041-5.932 5.854-8.428 4.986 1.023 9.789 1.799 15.035 2.205 1.98 0.154 4.129 0.224 6.404 0.224 22.752 0 57.61-8.539 59.246-8.864 1.731-0.348 3.233-0.461 2.953-2.205-0.205-1.266-1.796-0.961-3.531-0.615-0.432 0.086-43.693 6.705-64.576 5.088-3.865-0.301-7.514-0.819-11.215-1.504 5.685-7.04 8.244-7.236 33.742-9.192 5.271-0.403 11.245-0.862 18.42-1.476 15.16-1.291 28.82-3.772 40.643-7.371 0.39 1.303 0.785 3.162 1.033 5.77C270.849 186.112 271.316 191.012 247.05 197.397z" fill="#ffffff" data-fill-palette-color="accent"></path></svg></g></svg></g><g><rect width="33.49051097916326" height="2.8484179151588016" y="77.08429211361944" x="287.4739690208367" fill="#ffffff" data-fill-palette-color="secondary"></rect><rect width="33.49051097916326" height="2.8484179151588016" y="77.08429211361944" x="76.53311999999997" fill="#ffffff" data-fill-palette-color="secondary"></rect></g></svg></g><defs></defs></svg><rect width="395.52" height="156.47395978104802" fill="none" stroke="none" visibility="hidden"></rect></g></svg></g></svg>